<?xml version="1.0" encoding="UTF-8"?>
<svg width="61px" height="58px" viewBox="0 0 61 58" version="1.1" xmlns="http://www.w3.org/2000/svg" xmlns:xlink="http://www.w3.org/1999/xlink">
    <title>Group 23 Copy 2</title>
    <g id="ðŸ‹-Tablet" stroke="none" stroke-width="1" fill="none" fill-rule="evenodd">
        <g id="Group-23-Copy" fill-rule="nonzero">
            <g id="180646-copy-2" fill="#1C1892">
                <path d="M61,48.6447449 C61,53.6197968 56.732811,57.6528931 51.46875,57.6528931 L9.53125,57.6528931 C4.267189,57.6528931 0,53.6197968 0,48.6447449 L0,9.00814819 C0,4.03309637 4.267189,0 9.53125,0 L51.46875,0 C56.732811,0 61,4.03309637 61,9.00814819" id="Path"></path>
            </g>
            <g id="02" transform="translate(13.000000, 15.000000)" fill="#FFFFFF">
                <path d="M0,25 L0,14 L36,14 L36,25 C36,25.8333333 35.7083333,26.5416667 35.125,27.125 C34.5416667,27.7083333 33.8333333,28 33,28 L3,28 C2.16666667,28 1.45833333,27.7083333 0.875,27.125 C0.291666667,26.5416667 0,25.8333333 0,25 Z M12,20.75 L12,23.25 C12,23.75 12.25,24 12.75,24 L21.25,24 C21.75,24 22,23.75 22,23.25 L22,20.75 C22,20.25 21.75,20 21.25,20 L12.75,20 C12.25,20 12,20.25 12,20.75 Z M4,20.75 L4,23.25 C4,23.75 4.25,24 4.75,24 L9.25,24 C9.75,24 10,23.75 10,23.25 L10,20.75 C10,20.25 9.75,20 9.25,20 L4.75,20 C4.25,20 4,20.25 4,20.75 Z M36,3 L36,6 L0,6 L0,3 C0,2.16666667 0.291666667,1.45833333 0.875,0.875 C1.45833333,0.291666667 2.16666667,0 3,0 L33,0 C33.8333333,0 34.5416667,0.291666667 35.125,0.875 C35.7083333,1.45833333 36,2.16666667 36,3 Z" id="Shape"></path>
            </g>
        </g>
    </g>
</svg>