<?xml version="1.0" encoding="utf-8"?>
<!-- Generator: Adobe Illustrator 26.0.1, SVG Export Plug-In . SVG Version: 6.00 Build 0)  -->
<svg version="1.1" id="Layer_1" xmlns="http://www.w3.org/2000/svg" xmlns:xlink="http://www.w3.org/1999/xlink" x="0px" y="0px"
	 viewBox="0 0 316 328" style="enable-background:new 0 0 316 328;" xml:space="preserve">
<style type="text/css">
	.st0{opacity:0.25;}
	.st1{fill-rule:evenodd;clip-rule:evenodd;fill:#3730a3;}
</style>
<g id="_x30_1.-Home" class="st0">
	<g id="Fill-111">
		<path id="Fill-3" class="st1" d="M314.3,35.7c-0.1,0.2-0.1,0.5-0.1,0.7c0,0.9,0.7,1.7,1.6,1.8v32.9c-0.5,0.1-0.9,0.3-1.2,0.7
			l-28.7-16.5c0.1-0.2,0.1-0.4,0.1-0.6c0-0.8-0.6-1.6-1.4-1.8V20c0.4-0.1,0.8-0.4,1.1-0.8L314.3,35.7z M315.8,107.5
			c-0.9,0.1-1.6,0.9-1.6,1.8c0,0.3,0.1,0.5,0.1,0.7l-28.6,16.5c-0.2-0.4-0.6-0.6-1.1-0.8V92.9c0.8-0.2,1.4-0.9,1.4-1.8
			c0-0.2,0-0.4-0.1-0.6L314.6,74c0.3,0.4,0.7,0.6,1.2,0.7L315.8,107.5L315.8,107.5z M314.3,145.1c-0.1,0.2-0.1,0.5-0.1,0.7
			c0,0.9,0.7,1.7,1.6,1.8v32.9c-0.5,0.1-0.9,0.3-1.2,0.7l-28.7-16.5c0.1-0.2,0.1-0.4,0.1-0.6c0-0.8-0.6-1.6-1.4-1.8v-32.9
			c0.4-0.1,0.8-0.4,1.1-0.8L314.3,145.1z M315.8,216.9c-0.9,0.1-1.6,0.9-1.6,1.8c0,0.3,0.1,0.5,0.1,0.7l-28.6,16.5
			c-0.2-0.4-0.6-0.6-1.1-0.8v-32.9c0.8-0.2,1.4-0.9,1.4-1.8c0-0.2,0-0.4-0.1-0.6l28.7-16.5c0.3,0.4,0.7,0.6,1.2,0.7V216.9z
			 M314.3,254.4c-0.1,0.2-0.1,0.5-0.1,0.7c0,0.9,0.7,1.7,1.6,1.8v32.9c-0.5,0.1-0.9,0.3-1.2,0.7L285.9,274c0.1-0.2,0.1-0.4,0.1-0.6
			c0-0.8-0.6-1.6-1.4-1.8v-32.9c0.4-0.1,0.8-0.4,1.1-0.8L314.3,254.4z M314.3,292.3l-28.6,16.5c-0.3-0.5-0.9-0.8-1.5-0.8
			s-1,0.3-1.4,0.6l-28.3-16.3c0.1-0.2,0.1-0.5,0.1-0.7c0-0.3-0.1-0.5-0.1-0.7l28.3-16.3c0.3,0.4,0.8,0.6,1.4,0.6s1.2-0.3,1.5-0.8
			l28.6,16.5c-0.1,0.2-0.1,0.5-0.1,0.7C314.2,291.8,314.2,292.1,314.3,292.3z M254.2,290.5c-0.3-0.4-0.7-0.6-1.2-0.7v-32.9
			c0.9-0.1,1.6-0.9,1.6-1.8c0-0.3-0.1-0.5-0.1-0.7l28.3-16.3c0.3,0.4,0.8,0.6,1.4,0.6l0,0v32.8l0,0c-1,0-1.8,0.8-1.8,1.8
			c0,0.3,0.1,0.6,0.2,0.8L254.2,290.5z M252.8,253.3c-0.6,0-1.1,0.3-1.4,0.7l-28.7-16.5c0.1-0.2,0.1-0.4,0.1-0.6
			c0-0.2,0-0.4-0.1-0.6l28.7-16.5c0.3,0.4,0.9,0.7,1.4,0.7c0.6,0,1.1-0.3,1.4-0.7l28.3,16.3c-0.1,0.2-0.2,0.5-0.2,0.8
			s0.1,0.6,0.2,0.8L254.2,254C253.9,253.6,253.4,253.3,252.8,253.3z M251.4,290.5L222.7,274c0.1-0.2,0.1-0.4,0.1-0.6
			c0-0.8-0.6-1.6-1.4-1.8v-32.9c0.4-0.1,0.8-0.4,1.1-0.8l28.6,16.5c-0.1,0.2-0.1,0.5-0.1,0.7c0,0.9,0.7,1.7,1.6,1.8v32.9
			C252.1,289.8,251.6,290.1,251.4,290.5z M251.1,292.3l-28.6,16.5c-0.3-0.5-0.9-0.8-1.5-0.8s-1,0.3-1.4,0.6l-28.3-16.3
			c0.1-0.2,0.1-0.5,0.1-0.7c0-0.3-0.1-0.5-0.1-0.7l28.3-16.3c0.3,0.4,0.8,0.6,1.4,0.6c0.6,0,1.2-0.3,1.5-0.8l28.6,16.5
			c-0.1,0.2-0.1,0.5-0.1,0.7C251,291.8,251,292.1,251.1,292.3z M191,290.5c-0.3-0.4-0.7-0.6-1.2-0.7v-32.9c0.9-0.1,1.6-0.9,1.6-1.8
			c0-0.3-0.1-0.5-0.1-0.7l28.3-16.3c0.3,0.4,0.8,0.6,1.4,0.6l0,0v32.8l0,0c-1,0-1.8,0.8-1.8,1.8c0,0.3,0.1,0.6,0.2,0.8L191,290.5z
			 M189.6,253.3c-0.6,0-1.1,0.3-1.4,0.7l-28.7-16.5c0.1-0.2,0.1-0.4,0.1-0.6c0-0.2,0-0.4-0.1-0.6l28.7-16.5c0.3,0.4,0.9,0.7,1.4,0.7
			c0.6,0,1.1-0.3,1.4-0.7l28.3,16.3c-0.1,0.2-0.2,0.5-0.2,0.8s0.1,0.6,0.2,0.8L191,254C190.7,253.6,190.2,253.3,189.6,253.3z
			 M188.2,290.5L159.5,274c0.1-0.2,0.1-0.4,0.1-0.6c0-0.8-0.6-1.6-1.4-1.8v-32.9c0.4-0.1,0.8-0.4,1.1-0.8l28.6,16.5
			c-0.1,0.2-0.1,0.5-0.1,0.7c0,0.9,0.7,1.7,1.6,1.8v32.9C188.9,289.8,188.4,290.1,188.2,290.5z M187.9,292.3l-28.6,16.5
			c-0.3-0.5-0.9-0.8-1.5-0.8s-1,0.3-1.4,0.6l-28.3-16.3c0.1-0.2,0.1-0.5,0.1-0.7c0-0.3-0.1-0.5-0.1-0.7l28.3-16.3
			c0.3,0.4,0.8,0.6,1.4,0.6c0.6,0,1.2-0.3,1.5-0.8l28.6,16.5c-0.1,0.2-0.1,0.5-0.1,0.7C187.8,291.8,187.8,292.1,187.9,292.3z
			 M127.8,290.5c-0.3-0.4-0.7-0.6-1.2-0.7v-32.9c0.9-0.1,1.6-0.9,1.6-1.8c0-0.3-0.1-0.5-0.1-0.7l28.3-16.3c0.3,0.4,0.8,0.6,1.4,0.6
			l0,0v32.8l0,0c-1,0-1.8,0.8-1.8,1.8c0,0.3,0.1,0.6,0.2,0.8L127.8,290.5z M126.4,253.3c-0.6,0-1.1,0.3-1.4,0.7l-28.7-16.5
			c0.1-0.2,0.1-0.4,0.1-0.6c0-0.2,0-0.4-0.1-0.6l28.7-16.5c0.3,0.4,0.9,0.7,1.4,0.7c0.6,0,1.1-0.3,1.4-0.7l28.3,16.3
			c-0.1,0.2-0.2,0.5-0.2,0.8s0.1,0.6,0.2,0.8L127.8,254C127.5,253.6,127,253.3,126.4,253.3z M125,290.5L96.3,274
			c0.1-0.2,0.1-0.4,0.1-0.6c0-0.8-0.6-1.6-1.4-1.8v-32.9c0.4-0.1,0.8-0.4,1.1-0.8l28.6,16.5c-0.1,0.2-0.1,0.5-0.1,0.7
			c0,0.9,0.7,1.7,1.6,1.8v32.9C125.7,289.8,125.2,290.1,125,290.5z M124.7,292.3l-28.6,16.5c-0.3-0.5-0.9-0.8-1.5-0.8
			s-1,0.3-1.4,0.6l-28.3-16.3c0.1-0.2,0.1-0.5,0.1-0.7c0-0.3-0.1-0.5-0.1-0.7l28.3-16.3c0.3,0.4,0.8,0.6,1.4,0.6s1.2-0.3,1.5-0.8
			l28.6,16.5c-0.1,0.2-0.1,0.5-0.1,0.7C124.6,291.8,124.6,292.1,124.7,292.3z M64.6,290.5c-0.3-0.4-0.7-0.6-1.2-0.7v-32.9
			c0.9-0.1,1.6-0.9,1.6-1.8c0-0.3-0.1-0.5-0.1-0.7l28.3-16.3c0.3,0.4,0.8,0.6,1.4,0.6l0,0v32.8l0,0c-1,0-1.8,0.8-1.8,1.8
			c0,0.3,0.1,0.6,0.2,0.8L64.6,290.5z M63.2,253.3c-0.6,0-1.1,0.3-1.4,0.7l-28.7-16.5c0.1-0.2,0.1-0.4,0.1-0.6c0-0.2,0-0.4-0.1-0.6
			l28.7-16.5c0.3,0.4,0.9,0.7,1.4,0.7s1.1-0.3,1.4-0.7L93,236.1c-0.1,0.2-0.2,0.5-0.2,0.8s0.1,0.6,0.2,0.8L64.6,254
			C64.3,253.6,63.8,253.3,63.2,253.3z M61.8,290.5L33.1,274c0.1-0.2,0.1-0.4,0.1-0.6c0-0.8-0.6-1.6-1.4-1.8v-32.9
			c0.4-0.1,0.8-0.4,1.1-0.8l28.6,16.5c-0.1,0.2-0.1,0.5-0.1,0.7c0,0.9,0.7,1.7,1.6,1.8v32.9C62.5,289.8,62,290.1,61.8,290.5z
			 M61.5,292.3l-28.6,16.5c-0.3-0.5-0.9-0.8-1.5-0.8c-0.6,0-1,0.3-1.4,0.6L1.7,292.3c0.1-0.2,0.1-0.5,0.1-0.7c0-0.3-0.1-0.5-0.1-0.7
			L30,274.5c0.3,0.4,0.8,0.6,1.4,0.6s1.2-0.3,1.5-0.8l28.6,16.5c-0.1,0.2-0.1,0.5-0.1,0.7C61.4,291.8,61.4,292.1,61.5,292.3z
			 M1.4,290.5c-0.3-0.4-0.7-0.6-1.2-0.7v-32.9c0.9-0.1,1.6-0.9,1.6-1.8c0-0.3-0.1-0.5-0.1-0.7L30,238.1c0.3,0.4,0.8,0.6,1.4,0.6l0,0
			v32.8l0,0c-1,0-1.8,0.8-1.8,1.8c0,0.3,0.1,0.6,0.2,0.8L1.4,290.5z M1.7,219.4c0.1-0.2,0.1-0.5,0.1-0.7c0-0.9-0.7-1.7-1.6-1.8V184
			c0.5-0.1,0.9-0.3,1.2-0.7l28.3,16.3c-0.1,0.2-0.2,0.5-0.2,0.8c0,1,0.8,1.8,1.8,1.8l0,0V235l0,0c-0.6,0-1,0.3-1.4,0.6L1.7,219.4z
			 M1.8,145.8c0-0.3-0.1-0.5-0.1-0.7L30,128.7c0.3,0.4,0.8,0.6,1.4,0.6l0,0v32.8l0,0c-1,0-1.8,0.8-1.8,1.8c0,0.3,0.1,0.6,0.2,0.8
			L1.4,181.1c-0.3-0.4-0.7-0.6-1.2-0.7v-32.9C1.1,147.5,1.8,146.7,1.8,145.8z M1.7,110c0.1-0.2,0.1-0.5,0.1-0.7
			c0-0.9-0.7-1.7-1.6-1.8V74.7c0.5-0.1,0.9-0.3,1.2-0.7l28.3,16.3c-0.1,0.2-0.2,0.5-0.2,0.8c0,1,0.8,1.8,1.8,1.8l0,0v32.8l0,0
			c-0.6,0-1,0.3-1.4,0.6L1.7,110z M0.2,38.2c0.9-0.1,1.6-0.9,1.6-1.8c0-0.3-0.1-0.5-0.1-0.7L30,19.4c0.3,0.4,0.8,0.6,1.4,0.6l0,0
			v32.8l0,0c-1,0-1.8,0.8-1.8,1.8c0,0.3,0.1,0.6,0.2,0.8L1.4,71.8c-0.3-0.4-0.7-0.6-1.2-0.7C0.2,71.1,0.2,38.2,0.2,38.2z M32.9,55.7
			l28.6,16.5c-0.1,0.2-0.1,0.5-0.1,0.7c0,0.3,0.1,0.5,0.1,0.7L32.9,90.1c-0.3-0.5-0.9-0.8-1.5-0.8c-0.6,0-1,0.3-1.4,0.6L1.7,73.6
			c0.1-0.2,0.1-0.5,0.1-0.7c0-0.3-0.1-0.5-0.1-0.7L30,55.8c0.3,0.4,0.8,0.6,1.4,0.6C32,56.5,32.6,56.2,32.9,55.7z M31.8,20
			c0.4-0.1,0.8-0.4,1.1-0.8l28.6,16.5c-0.1,0.2-0.1,0.5-0.1,0.7c0,0.9,0.7,1.7,1.6,1.8v32.9c-0.5,0.1-0.9,0.3-1.2,0.7L33.1,55.3
			c0.1-0.2,0.1-0.4,0.1-0.6c0-0.8-0.6-1.6-1.4-1.8C31.8,52.9,31.8,20,31.8,20z M33.1,17.6L61.8,1.1c0.3,0.4,0.9,0.7,1.4,0.7
			c0.6,0,1.1-0.3,1.4-0.7L93,17.4c-0.1,0.2-0.2,0.5-0.2,0.8s0.1,0.6,0.2,0.8L64.6,35.4c-0.3-0.4-0.9-0.7-1.4-0.7
			c-0.6,0-1.1,0.3-1.4,0.7L33.1,18.8c0.1-0.2,0.1-0.4,0.1-0.6S33.1,17.8,33.1,17.6z M94.6,20L94.6,20v32.8l0,0c-1,0-1.8,0.8-1.8,1.8
			c0,0.3,0.1,0.6,0.2,0.8L64.6,71.8c-0.3-0.4-0.7-0.6-1.2-0.7V38.2c0.9-0.1,1.6-0.9,1.6-1.8c0-0.3-0.1-0.5-0.1-0.7l28.3-16.3
			C93.5,19.8,94,20,94.6,20z M96.1,55.7l28.6,16.5c-0.1,0.2-0.1,0.5-0.1,0.7c0,0.3,0.1,0.5,0.1,0.7L96.1,90.1
			c-0.3-0.5-0.9-0.8-1.5-0.8s-1,0.3-1.4,0.6L64.9,73.6c0.1-0.2,0.1-0.5,0.1-0.7c0-0.3-0.1-0.5-0.1-0.7l28.3-16.3
			c0.3,0.4,0.8,0.6,1.4,0.6C95.2,56.5,95.8,56.2,96.1,55.7z M95,20c0.4-0.1,0.8-0.4,1.1-0.8l28.6,16.5c-0.1,0.2-0.1,0.5-0.1,0.7
			c0,0.9,0.7,1.7,1.6,1.8v32.9c-0.5,0.1-0.9,0.3-1.2,0.7L96.3,55.3c0.1-0.2,0.1-0.4,0.1-0.6c0-0.8-0.6-1.6-1.4-1.8V20z M96.3,17.6
			L125,1.1c0.3,0.4,0.9,0.7,1.4,0.7c0.6,0,1.1-0.3,1.4-0.7l28.3,16.3c-0.1,0.2-0.2,0.5-0.2,0.8s0.1,0.6,0.2,0.8l-28.3,16.3
			c-0.3-0.4-0.9-0.7-1.4-0.7c-0.6,0-1.1,0.3-1.4,0.7L96.3,18.8c0.1-0.2,0.1-0.4,0.1-0.6S96.3,17.8,96.3,17.6z M157.8,20L157.8,20
			v32.8l0,0c-1,0-1.8,0.8-1.8,1.8c0,0.3,0.1,0.6,0.2,0.8l-28.3,16.3c-0.3-0.4-0.7-0.6-1.2-0.7V38.2c0.9-0.1,1.6-0.9,1.6-1.8
			c0-0.3-0.1-0.5-0.1-0.7l28.3-16.3C156.7,19.8,157.2,20,157.8,20z M159.3,55.7l28.6,16.5c-0.1,0.2-0.1,0.5-0.1,0.7
			c0,0.3,0.1,0.5,0.1,0.7l-28.6,16.5c-0.3-0.5-0.9-0.8-1.5-0.8s-1,0.3-1.4,0.6l-28.3-16.3c0.1-0.2,0.1-0.5,0.1-0.7
			c0-0.3-0.1-0.5-0.1-0.7l28.3-16.3c0.3,0.4,0.8,0.6,1.4,0.6C158.4,56.5,159,56.2,159.3,55.7z M158.2,20c0.4-0.1,0.8-0.4,1.1-0.8
			l28.6,16.5c-0.1,0.2-0.1,0.5-0.1,0.7c0,0.9,0.7,1.7,1.6,1.8v32.9c-0.5,0.1-0.9,0.3-1.2,0.7l-28.7-16.5c0.1-0.2,0.1-0.4,0.1-0.6
			c0-0.8-0.6-1.6-1.4-1.8L158.2,20L158.2,20z M159.5,17.6l28.7-16.5c0.3,0.4,0.9,0.7,1.4,0.7c0.6,0,1.1-0.3,1.4-0.7l28.3,16.3
			c-0.1,0.2-0.2,0.5-0.2,0.8s0.1,0.6,0.2,0.8L191,35.4c-0.3-0.4-0.9-0.7-1.4-0.7c-0.6,0-1.1,0.3-1.4,0.7l-28.7-16.5
			c0.1-0.2,0.1-0.4,0.1-0.6S159.5,17.8,159.5,17.6z M221,20L221,20v32.8l0,0c-1,0-1.8,0.8-1.8,1.8c0,0.3,0.1,0.6,0.2,0.8L191,71.8
			c-0.3-0.4-0.7-0.6-1.2-0.7V38.2c0.9-0.1,1.6-0.9,1.6-1.8c0-0.3-0.1-0.5-0.1-0.7l28.3-16.3C219.9,19.8,220.4,20,221,20z
			 M222.5,55.7l28.6,16.5c-0.1,0.2-0.1,0.5-0.1,0.7c0,0.3,0.1,0.5,0.1,0.7l-28.6,16.5c-0.3-0.5-0.9-0.8-1.5-0.8s-1,0.3-1.4,0.6
			l-28.3-16.3c0.1-0.2,0.1-0.5,0.1-0.7c0-0.3-0.1-0.5-0.1-0.7l28.3-16.3c0.3,0.4,0.8,0.6,1.4,0.6C221.6,56.5,222.2,56.2,222.5,55.7z
			 M221.4,20c0.4-0.1,0.8-0.4,1.1-0.8l28.6,16.5c-0.1,0.2-0.1,0.5-0.1,0.7c0,0.9,0.7,1.7,1.6,1.8v32.9c-0.5,0.1-0.9,0.3-1.2,0.7
			l-28.7-16.5c0.1-0.2,0.1-0.4,0.1-0.6c0-0.8-0.6-1.6-1.4-1.8L221.4,20L221.4,20z M222.7,17.6l28.7-16.5c0.3,0.4,0.9,0.7,1.4,0.7
			c0.6,0,1.1-0.3,1.4-0.7l28.3,16.3c-0.1,0.2-0.2,0.5-0.2,0.8s0.1,0.6,0.2,0.8l-28.3,16.3c-0.3-0.4-0.9-0.7-1.4-0.7
			c-0.6,0-1.1,0.3-1.4,0.7l-28.7-16.5c0.1-0.2,0.1-0.4,0.1-0.6S222.7,17.8,222.7,17.6z M284.2,20L284.2,20v32.8l0,0
			c-1,0-1.8,0.8-1.8,1.8c0,0.3,0.1,0.6,0.2,0.8l-28.3,16.3c-0.3-0.4-0.7-0.6-1.2-0.7V38.2c0.9-0.1,1.6-0.9,1.6-1.8
			c0-0.3-0.1-0.5-0.1-0.7l28.3-16.3C283.1,19.8,283.6,20,284.2,20z M284.2,125.7L284.2,125.7c-0.6,0-1,0.3-1.4,0.6L254.5,110
			c0.1-0.2,0.1-0.5,0.1-0.7c0-0.9-0.7-1.7-1.6-1.8V74.7c0.5-0.1,0.9-0.3,1.2-0.7l28.3,16.3c-0.1,0.2-0.2,0.5-0.2,0.8
			c0,1,0.8,1.8,1.8,1.8l0,0v32.8H284.2z M282.6,164.8l-28.3,16.3c-0.3-0.4-0.7-0.6-1.2-0.7v-32.9c0.9-0.1,1.6-0.9,1.6-1.8
			c0-0.3-0.1-0.5-0.1-0.7l28.3-16.3c0.3,0.4,0.8,0.6,1.4,0.6l0,0v32.8l0,0c-1,0-1.8,0.8-1.8,1.8
			C282.4,164.3,282.4,164.6,282.6,164.8z M251.4,144.7l-28.7-16.5c0.1-0.2,0.1-0.4,0.1-0.6s0-0.4-0.1-0.6l28.7-16.5
			c0.3,0.4,0.9,0.7,1.4,0.7c0.6,0,1.1-0.3,1.4-0.7l28.3,16.3c-0.1,0.2-0.2,0.5-0.2,0.8s0.1,0.6,0.2,0.8l-28.3,16.3
			c-0.3-0.4-0.9-0.7-1.4-0.7C252.2,144,251.7,144.3,251.4,144.7z M222.7,90.5L251.4,74c0.3,0.4,0.7,0.6,1.2,0.7v32.9
			c-0.9,0.1-1.6,0.9-1.6,1.8c0,0.3,0.1,0.5,0.1,0.7l-28.6,16.5c-0.2-0.4-0.6-0.6-1.1-0.8V92.9c0.8-0.2,1.4-0.9,1.4-1.8
			C222.8,90.9,222.7,90.7,222.7,90.5z M251.4,181.1l-28.7-16.5c0.1-0.2,0.1-0.4,0.1-0.6c0-0.8-0.6-1.6-1.4-1.8v-32.9
			c0.4-0.1,0.8-0.4,1.1-0.8l28.6,16.5c-0.1,0.2-0.1,0.5-0.1,0.7c0,0.9,0.7,1.7,1.6,1.8v32.9C252.1,180.5,251.6,180.8,251.4,181.1z
			 M221,198.6c-0.6,0-1,0.3-1.4,0.6l-28.3-16.3c0.1-0.2,0.1-0.5,0.1-0.7s-0.1-0.5-0.1-0.7l28.3-16.3c0.3,0.4,0.8,0.6,1.4,0.6
			c0.6,0,1.2-0.3,1.5-0.8l28.6,16.5c-0.1,0.2-0.1,0.5-0.1,0.7c0,0.3,0.1,0.5,0.1,0.7l-28.6,16.5C222.2,199,221.6,198.6,221,198.6z
			 M219.4,164.8L191,181.1c-0.3-0.4-0.7-0.6-1.2-0.7v-32.9c0.9-0.1,1.6-0.9,1.6-1.8c0-0.3-0.1-0.5-0.1-0.7l28.3-16.3
			c0.3,0.4,0.8,0.6,1.4,0.6l0,0v32.8l0,0c-1,0-1.8,0.8-1.8,1.8C219.2,164.3,219.2,164.6,219.4,164.8z M221,92.9L221,92.9v32.8l0,0
			c-0.6,0-1,0.3-1.4,0.6L191.3,110c0.1-0.2,0.1-0.5,0.1-0.7c0-0.9-0.7-1.7-1.6-1.8V74.7c0.5-0.1,0.9-0.3,1.2-0.7l28.3,16.3
			c-0.1,0.2-0.2,0.5-0.2,0.8C219.2,92.1,220,92.9,221,92.9z M188.2,144.7l-28.7-16.5c0.1-0.2,0.1-0.4,0.1-0.6s0-0.4-0.1-0.6
			l28.7-16.5c0.3,0.4,0.9,0.7,1.4,0.7c0.6,0,1.1-0.3,1.4-0.7l28.3,16.3c-0.1,0.2-0.2,0.5-0.2,0.8s0.1,0.6,0.2,0.8L191,144.7
			c-0.3-0.4-0.9-0.7-1.4-0.7C189,144,188.5,144.3,188.2,144.7z M159.5,90.5L188.2,74c0.3,0.4,0.7,0.6,1.2,0.7v32.9
			c-0.9,0.1-1.6,0.9-1.6,1.8c0,0.3,0.1,0.5,0.1,0.7l-28.6,16.5c-0.2-0.4-0.6-0.6-1.1-0.8V92.9c0.8-0.2,1.4-0.9,1.4-1.8
			C159.6,90.9,159.5,90.7,159.5,90.5z M188.2,181.1l-28.7-16.5c0.1-0.2,0.1-0.4,0.1-0.6c0-0.8-0.6-1.6-1.4-1.8v-32.9
			c0.4-0.1,0.8-0.4,1.1-0.8l28.6,16.5c-0.1,0.2-0.1,0.5-0.1,0.7c0,0.9,0.7,1.7,1.6,1.8v32.9C188.9,180.5,188.4,180.8,188.2,181.1z
			 M157.8,198.6c-0.6,0-1,0.3-1.4,0.6l-28.3-16.3c0.1-0.2,0.1-0.5,0.1-0.7s-0.1-0.5-0.1-0.7l28.3-16.3c0.3,0.4,0.8,0.6,1.4,0.6
			c0.6,0,1.2-0.3,1.5-0.8l28.6,16.5c-0.1,0.2-0.1,0.5-0.1,0.7c0,0.3,0.1,0.5,0.1,0.7l-28.6,16.5C159,199,158.4,198.6,157.8,198.6z
			 M156.2,164.8l-28.3,16.3c-0.3-0.4-0.7-0.6-1.2-0.7v-32.9c0.9-0.1,1.6-0.9,1.6-1.8c0-0.3-0.1-0.5-0.1-0.7l28.3-16.3
			c0.3,0.4,0.8,0.6,1.4,0.6l0,0v32.8l0,0c-1,0-1.8,0.8-1.8,1.8C156,164.3,156,164.6,156.2,164.8z M157.8,92.9L157.8,92.9v32.8l0,0
			c-0.6,0-1,0.3-1.4,0.6L128.1,110c0.1-0.2,0.1-0.5,0.1-0.7c0-0.9-0.7-1.7-1.6-1.8V74.7c0.5-0.1,0.9-0.3,1.2-0.7l28.3,16.3
			c-0.1,0.2-0.2,0.5-0.2,0.8C156,92.1,156.8,92.9,157.8,92.9z M125,144.7l-28.7-16.5c0.1-0.2,0.1-0.4,0.1-0.6s0-0.4-0.1-0.6
			l28.7-16.5c0.3,0.4,0.9,0.7,1.4,0.7c0.6,0,1.1-0.3,1.4-0.7l28.3,16.3c-0.1,0.2-0.2,0.5-0.2,0.8s0.1,0.6,0.2,0.8l-28.3,16.3
			c-0.3-0.4-0.9-0.7-1.4-0.7C125.8,144,125.3,144.3,125,144.7z M96.3,90.5L125,74c0.3,0.4,0.7,0.6,1.2,0.7v32.9
			c-0.9,0.1-1.6,0.9-1.6,1.8c0,0.3,0.1,0.5,0.1,0.7l-28.6,16.5c-0.2-0.4-0.6-0.6-1.1-0.8V92.9c0.8-0.2,1.4-0.9,1.4-1.8
			C96.4,90.9,96.3,90.7,96.3,90.5z M125,181.1l-28.7-16.5c0.1-0.2,0.1-0.4,0.1-0.6c0-0.8-0.6-1.6-1.4-1.8v-32.9
			c0.4-0.1,0.8-0.4,1.1-0.8l28.6,16.5c-0.1,0.2-0.1,0.5-0.1,0.7c0,0.9,0.7,1.7,1.6,1.8v32.9C125.7,180.5,125.2,180.8,125,181.1z
			 M94.6,198.6c-0.6,0-1,0.3-1.4,0.6l-28.3-16.3c0.1-0.2,0.1-0.5,0.1-0.7s-0.1-0.5-0.1-0.7l28.3-16.3c0.3,0.4,0.8,0.6,1.4,0.6
			s1.2-0.3,1.5-0.8l28.6,16.5c-0.1,0.2-0.1,0.5-0.1,0.7s0.1,0.5,0.1,0.7l-28.6,16.5C95.8,199,95.2,198.6,94.6,198.6z M93,164.8
			l-28.3,16.3c-0.3-0.4-0.7-0.6-1.2-0.7v-32.9c0.9-0.1,1.6-0.9,1.6-1.8c0-0.3-0.1-0.5-0.1-0.7l28.3-16.3c0.3,0.4,0.8,0.6,1.4,0.6
			l0,0v32.8l0,0c-1,0-1.8,0.8-1.8,1.8C92.8,164.3,92.8,164.6,93,164.8z M94.6,92.9L94.6,92.9v32.8l0,0c-0.6,0-1,0.3-1.4,0.6
			L64.9,110c0.1-0.2,0.1-0.5,0.1-0.7c0-0.9-0.7-1.7-1.6-1.8V74.7c0.5-0.1,0.9-0.3,1.2-0.7L93,90.3c-0.1,0.2-0.2,0.5-0.2,0.8
			C92.8,92.1,93.6,92.9,94.6,92.9z M61.8,144.7l-28.7-16.5c0.1-0.2,0.1-0.4,0.1-0.6s0-0.4-0.1-0.6l28.7-16.5
			c0.3,0.4,0.9,0.7,1.4,0.7s1.1-0.3,1.4-0.7L93,126.7c-0.1,0.2-0.2,0.5-0.2,0.8s0.1,0.6,0.2,0.8l-28.3,16.3
			c-0.3-0.4-0.9-0.7-1.4-0.7C62.6,144,62.1,144.3,61.8,144.7z M33.1,90.5L61.8,74c0.3,0.4,0.7,0.6,1.2,0.7v32.9
			c-0.9,0.1-1.6,0.9-1.6,1.8c0,0.3,0.1,0.5,0.1,0.7l-28.6,16.5c-0.2-0.4-0.6-0.6-1.1-0.8V92.9c0.8-0.2,1.4-0.9,1.4-1.8
			C33.2,90.9,33.1,90.7,33.1,90.5z M61.8,181.1l-28.7-16.5c0.1-0.2,0.1-0.4,0.1-0.6c0-0.8-0.6-1.6-1.4-1.8v-32.9
			c0.4-0.1,0.8-0.4,1.1-0.8L61.5,145c-0.1,0.2-0.1,0.5-0.1,0.7c0,0.9,0.7,1.7,1.6,1.8v32.9C62.5,180.5,62,180.8,61.8,181.1z
			 M1.7,181.5L30,165.2c0.3,0.4,0.8,0.6,1.4,0.6s1.2-0.3,1.5-0.8l28.6,16.5c-0.1,0.2-0.1,0.5-0.1,0.7s0.1,0.5,0.1,0.7l-28.6,16.5
			c-0.3-0.5-0.9-0.8-1.5-0.8c-0.6,0-1,0.3-1.4,0.6L1.7,182.9c0.1-0.2,0.1-0.5,0.1-0.7S1.8,181.7,1.7,181.5z M61.5,219.4l-28.6,16.5
			c-0.2-0.4-0.6-0.6-1.1-0.8v-32.9c0.8-0.2,1.4-0.9,1.4-1.8c0-0.2,0-0.4-0.1-0.6l28.7-16.5c0.3,0.4,0.7,0.6,1.2,0.7v32.9
			c-0.9,0.1-1.6,0.9-1.6,1.8C61.4,218.9,61.4,219.2,61.5,219.4z M63.4,216.9V184c0.5-0.1,0.9-0.3,1.2-0.7L93,199.6
			c-0.1,0.2-0.2,0.5-0.2,0.8c0,1,0.8,1.8,1.8,1.8l0,0V235l0,0c-0.6,0-1,0.3-1.4,0.6l-28.3-16.3c0.1-0.2,0.1-0.5,0.1-0.7
			C65,217.7,64.3,217,63.4,216.9z M124.7,219.4l-28.6,16.5c-0.2-0.4-0.6-0.6-1.1-0.8v-32.9c0.8-0.2,1.4-0.9,1.4-1.8
			c0-0.2,0-0.4-0.1-0.6l28.7-16.5c0.3,0.4,0.7,0.6,1.2,0.7v32.9c-0.9,0.1-1.6,0.9-1.6,1.8C124.6,218.9,124.6,219.2,124.7,219.4z
			 M126.6,216.9V184c0.5-0.1,0.9-0.3,1.2-0.7l28.3,16.3c-0.1,0.2-0.2,0.5-0.2,0.8c0,1,0.8,1.8,1.8,1.8l0,0V235l0,0
			c-0.6,0-1,0.3-1.4,0.6L128,219.3c0.1-0.2,0.1-0.5,0.1-0.7C128.2,217.7,127.5,217,126.6,216.9z M187.9,219.4l-28.6,16.5
			c-0.2-0.4-0.6-0.6-1.1-0.8v-32.9c0.8-0.2,1.4-0.9,1.4-1.8c0-0.2,0-0.4-0.1-0.6l28.7-16.5c0.3,0.4,0.7,0.6,1.2,0.7v32.9
			c-0.9,0.1-1.6,0.9-1.6,1.8C187.8,218.9,187.8,219.2,187.9,219.4z M189.8,216.9V184c0.5-0.1,0.9-0.3,1.2-0.7l28.3,16.3
			c-0.1,0.2-0.2,0.5-0.2,0.8c0,1,0.8,1.8,1.8,1.8l0,0V235l0,0c-0.6,0-1,0.3-1.4,0.6l-28.3-16.3c0.1-0.2,0.1-0.5,0.1-0.7
			C191.4,217.7,190.7,217,189.8,216.9z M251.1,219.4l-28.6,16.5c-0.2-0.4-0.6-0.6-1.1-0.8v-32.9c0.8-0.2,1.4-0.9,1.4-1.8
			c0-0.2,0-0.4-0.1-0.6l28.7-16.5c0.3,0.4,0.7,0.6,1.2,0.7v32.9c-0.9,0.1-1.6,0.9-1.6,1.8C251,218.9,251,219.2,251.1,219.4z
			 M253,216.9V184c0.5-0.1,0.9-0.3,1.2-0.7l28.3,16.3c-0.1,0.2-0.2,0.5-0.2,0.8c0,1,0.8,1.8,1.8,1.8l0,0V235l0,0
			c-0.6,0-1,0.3-1.4,0.6l-28.3-16.3c0.1-0.2,0.1-0.5,0.1-0.7C254.6,217.7,253.9,217,253,216.9z M314.3,182.9l-28.6,16.5
			c-0.3-0.5-0.9-0.8-1.5-0.8s-1,0.3-1.4,0.6l-28.3-16.3c0.1-0.2,0.1-0.5,0.1-0.7s-0.1-0.5-0.1-0.7l28.3-16.3
			c0.3,0.4,0.8,0.6,1.4,0.6s1.2-0.3,1.5-0.8l28.6,16.5c-0.1,0.2-0.1,0.5-0.1,0.7C314.2,182.5,314.2,182.7,314.3,182.9z M285.7,55.7
			l28.6,16.5c-0.1,0.2-0.1,0.5-0.1,0.7c0,0.3,0.1,0.5,0.1,0.7l-28.6,16.5c-0.3-0.5-0.9-0.8-1.5-0.8s-1,0.3-1.4,0.6l-28.3-16.3
			c0.1-0.2,0.1-0.5,0.1-0.7c0-0.3-0.1-0.5-0.1-0.7l28.3-16.3c0.3,0.4,0.8,0.6,1.4,0.6C284.8,56.5,285.4,56.2,285.7,55.7z M316,1.8V0
			h-1.8c0,0.3,0.1,0.5,0.1,0.7l-28.6,16.5c-0.2-0.4-0.6-0.6-1.1-0.8V0h-0.4v16.4l0,0c-0.6,0-1,0.3-1.4,0.6L254.5,0.7
			c0.1-0.2,0.1-0.5,0.1-0.7H251c0,0.3,0.1,0.5,0.1,0.7l-28.6,16.5c-0.2-0.4-0.6-0.6-1.1-0.8V0H221v16.4l0,0c-0.6,0-1,0.3-1.4,0.6
			L191.3,0.7c0.1-0.2,0.1-0.5,0.1-0.7h-3.6c0,0.3,0.1,0.5,0.1,0.7l-28.6,16.5c-0.2-0.4-0.6-0.6-1.1-0.8V0h-0.4v16.4l0,0
			c-0.6,0-1,0.3-1.4,0.6L128.1,0.7c0.1-0.2,0.1-0.5,0.1-0.7h-3.6c0,0.3,0.1,0.5,0.1,0.7L96.1,17.2c-0.2-0.4-0.6-0.6-1.1-0.8V0h-0.4
			v16.4l0,0c-0.6,0-1,0.3-1.4,0.6L64.9,0.7C65,0.5,65,0.3,65,0h-3.6c0,0.3,0.1,0.5,0.1,0.7L32.9,17.2c-0.2-0.4-0.6-0.6-1.1-0.8V0
			h-0.4v16.4l0,0c-0.6,0-1,0.3-1.4,0.6L1.7,0.7C1.8,0.5,1.8,0.3,1.8,0H0v1.8c0.6,0,1.1-0.3,1.4-0.7l28.3,16.3
			c-0.1,0.2-0.2,0.5-0.2,0.8s0.1,0.6,0.2,0.8L1.4,35.4C1.1,35,0.5,34.7,0,34.7v76.5c0.6,0,1.1-0.3,1.4-0.7l28.3,16.3
			c-0.1,0.2-0.2,0.5-0.2,0.8s0.1,0.6,0.2,0.8L1.4,144.7C1.1,144.3,0.6,144,0,144v76.5c0.6,0,1.1-0.3,1.4-0.7l28.3,16.3
			c-0.1,0.2-0.2,0.5-0.2,0.8s0.1,0.6,0.2,0.8L1.4,254c-0.3-0.4-0.9-0.7-1.4-0.7V328h1.8c0-0.9-0.7-1.7-1.6-1.8v-32.9
			c0.5-0.1,0.9-0.3,1.2-0.7L29.8,309c-0.1,0.2-0.2,0.5-0.2,0.8c0,1,0.8,1.8,1.8,1.8l0,0V328h0.4v-16.5c0.8-0.2,1.4-0.9,1.4-1.8
			c0-0.2,0-0.4-0.1-0.6l28.7-16.5c0.3,0.4,0.7,0.6,1.2,0.7v32.9c-0.9,0.1-1.6,0.9-1.6,1.8H65c0-0.9-0.7-1.7-1.6-1.8v-32.9
			c0.5-0.1,0.9-0.3,1.2-0.7L93,309c-0.1,0.2-0.2,0.5-0.2,0.8c0,1,0.8,1.8,1.8,1.8l0,0V328H95v-16.5c0.8-0.2,1.4-0.9,1.4-1.8
			c0-0.2,0-0.4-0.1-0.6l28.7-16.5c0.3,0.4,0.7,0.6,1.2,0.7v32.9c-0.9,0.1-1.6,0.9-1.6,1.8h3.6c0-0.9-0.7-1.7-1.6-1.8v-32.9
			c0.5-0.1,0.9-0.3,1.2-0.7l28.3,16.3c-0.1,0.2-0.2,0.5-0.2,0.8c0,1,0.8,1.8,1.8,1.8l0,0v16.4h0.4v-16.5c0.8-0.2,1.4-0.9,1.4-1.8
			c0-0.2,0-0.4-0.1-0.6l28.7-16.5c0.3,0.4,0.7,0.6,1.2,0.7v32.9c-0.9,0.1-1.6,0.9-1.6,1.8h3.6c0-0.9-0.7-1.7-1.6-1.8v-32.9
			c0.5-0.1,0.9-0.3,1.2-0.7l28.3,16.3c-0.1,0.2-0.2,0.5-0.2,0.8c0,1,0.8,1.8,1.8,1.8l0,0V328h0.4v-16.5c0.8-0.2,1.4-0.9,1.4-1.8
			c0-0.2,0-0.4-0.1-0.6l28.7-16.5c0.3,0.4,0.7,0.6,1.2,0.7v32.9c-0.9,0.1-1.6,0.9-1.6,1.8h3.6c0-0.9-0.7-1.7-1.6-1.8v-32.9
			c0.5-0.1,0.9-0.3,1.2-0.7l28.3,16.3c-0.1,0.2-0.2,0.5-0.2,0.8c0,1,0.8,1.8,1.8,1.8l0,0V328h0.4v-16.5c0.8-0.2,1.4-0.9,1.4-1.8
			c0-0.2,0-0.4-0.1-0.6l28.7-16.5c0.3,0.4,0.7,0.6,1.2,0.7v32.9c-0.9,0.1-1.6,0.9-1.6,1.8h1.8v-74.7c-0.6,0-1.1,0.3-1.4,0.7
			l-28.7-16.5c0.1-0.2,0.1-0.4,0.1-0.6c0-0.2,0-0.4-0.1-0.6l28.7-16.5c0.3,0.4,0.9,0.7,1.4,0.7V144c-0.6,0-1.1,0.3-1.4,0.7
			l-28.7-16.5c0.1-0.2,0.1-0.4,0.1-0.6s0-0.4-0.1-0.6l28.7-16.5c0.3,0.4,0.9,0.7,1.4,0.7V34.6c-0.6,0-1.1,0.3-1.4,0.7l-28.7-16.5
			c0.1-0.2,0.1-0.4,0.1-0.6s0-0.4-0.1-0.6l28.7-16.5C314.9,1.5,315.4,1.8,316,1.8L316,1.8z"/>
	</g>
</g>
</svg>
