<svg width="196" height="51" viewBox="0 0 196 51" fill="none" xmlns="http://www.w3.org/2000/svg">
<path d="M77.6347 33.79V8.33804H82.4587V33.79H77.6347ZM73.5667 33.79V29.614H77.6347V33.79H73.5667ZM73.5667 33.79C73.4227 33.79 73.3027 33.742 73.2067 33.646C73.1347 33.55 73.0627 33.418 72.9907 33.25C72.9427 33.058 72.9067 32.83 72.8827 32.566C72.8587 32.302 72.8467 32.014 72.8467 31.702C72.8467 31.27 72.8707 30.91 72.9187 30.622C72.9667 30.31 73.0387 30.07 73.1347 29.902C73.2547 29.71 73.3987 29.614 73.5667 29.614V33.79ZM57.4747 42.718C55.9147 42.718 54.4627 42.49 53.1187 42.034C51.7987 41.602 50.6467 40.99 49.6627 40.198C48.6787 39.43 47.8987 38.506 47.3227 37.426C46.7707 36.37 46.4947 35.218 46.4947 33.97C46.4947 33.514 46.5307 32.926 46.6027 32.206C46.6747 31.486 46.7707 30.658 46.8907 29.722C47.0347 28.786 47.1907 27.79 47.3587 26.734L52.1107 27.382C51.8707 28.894 51.6787 30.238 51.5347 31.414C51.3907 32.59 51.3187 33.418 51.3187 33.898C51.3187 34.81 51.5707 35.614 52.0747 36.31C52.5787 37.006 53.2867 37.546 54.1987 37.93C55.1347 38.338 56.2267 38.542 57.4747 38.542H67.6627C69.2227 38.542 70.3867 38.146 71.1547 37.354C71.9227 36.562 72.3067 35.41 72.3067 33.898V32.53H77.0947V33.898C77.0947 35.626 76.7107 37.15 75.9427 38.47C75.1747 39.79 74.0827 40.822 72.6667 41.566C71.2747 42.334 69.6067 42.718 67.6627 42.718H57.4747ZM70.7227 33.79C69.6187 33.79 68.5507 33.67 67.5187 33.43C66.5107 33.19 65.5507 32.758 64.6387 32.134L67.3747 28.678C67.7587 28.942 68.0947 29.146 68.3827 29.29C68.6947 29.41 69.0307 29.494 69.3907 29.542C69.7747 29.59 70.2187 29.614 70.7227 29.614H78.6787V33.79H70.7227ZM78.6787 33.79V29.614C78.7987 29.614 78.9067 29.662 79.0027 29.758C79.0987 29.854 79.1707 29.998 79.2187 30.19C79.2667 30.382 79.3027 30.61 79.3267 30.874C79.3747 31.114 79.3987 31.39 79.3987 31.702C79.3987 32.014 79.3747 32.302 79.3267 32.566C79.3027 32.83 79.2667 33.058 79.2187 33.25C79.1707 33.418 79.0987 33.55 79.0027 33.646C78.9067 33.742 78.7987 33.79 78.6787 33.79ZM56.2507 50.134V46.03H60.8947V50.134H56.2507ZM62.8027 50.134V46.03H67.4467V50.134H62.8027ZM93.3442 33.79V29.614H97.9882V33.79H93.3442ZM86.3602 42.718C86.0482 42.718 85.7122 42.706 85.3522 42.682C84.9922 42.658 84.6202 42.622 84.2362 42.574L84.4162 38.47C84.8002 38.494 85.1602 38.518 85.4962 38.542C85.8562 38.566 86.1202 38.578 86.2882 38.578C87.2242 38.578 87.9682 38.206 88.5202 37.462C89.0962 36.718 89.3842 35.674 89.3842 34.33V15.718H94.2082V34.33C94.2082 35.962 93.8722 37.414 93.2002 38.686C92.5522 39.958 91.6402 40.942 90.4642 41.638C89.2882 42.358 87.9202 42.718 86.3602 42.718ZM97.9882 33.79V29.614C98.1322 29.614 98.2402 29.662 98.3122 29.758C98.4082 29.854 98.4802 29.998 98.5282 30.19C98.6002 30.382 98.6482 30.61 98.6722 30.874C98.6962 31.114 98.7082 31.39 98.7082 31.702C98.7082 32.014 98.6962 32.302 98.6722 32.566C98.6482 32.83 98.6002 33.058 98.5282 33.25C98.4802 33.418 98.4082 33.55 98.3122 33.646C98.2402 33.742 98.1322 33.79 97.9882 33.79ZM98 33.79V29.614H116.072L114.488 30.91V26.014C114.488 24.766 114.356 23.77 114.092 23.026C113.828 22.282 113.42 21.742 112.868 21.406C112.34 21.07 111.668 20.902 110.852 20.902H102.968L99.98 16.582L101.816 13.126C102.032 12.718 102.272 12.274 102.536 11.794C102.8 11.314 103.148 10.738 103.58 10.066C104.012 9.39404 104.564 8.55404 105.236 7.54604L109.268 9.81404C108.644 10.75 108.14 11.53 107.756 12.154C107.372 12.754 107.048 13.282 106.784 13.738C106.52 14.194 106.28 14.65 106.064 15.106L104.624 17.806L103.904 16.726H110.852C112.388 16.726 113.696 16.978 114.776 17.482C115.856 17.986 116.72 18.682 117.368 19.57C118.04 20.458 118.532 21.454 118.844 22.558C119.156 23.662 119.312 24.814 119.312 26.014V33.79H98ZM98 33.79C97.856 33.79 97.748 33.742 97.676 33.646C97.58 33.55 97.508 33.418 97.46 33.25C97.388 33.058 97.34 32.83 97.316 32.566C97.292 32.302 97.28 32.014 97.28 31.702C97.28 31.27 97.304 30.91 97.352 30.622C97.4 30.31 97.484 30.07 97.604 29.902C97.7 29.71 97.832 29.614 98 29.614V33.79ZM125.041 33.79V8.33804H129.829V33.79H125.041ZM134.526 33.79V29.614H147.594L144.318 32.458V26.41C144.318 24.706 144.138 23.386 143.778 22.45C143.442 21.514 142.866 20.854 142.05 20.47C141.258 20.086 140.166 19.894 138.774 19.894H135.858V15.718H138.774C140.982 15.718 142.854 16.078 144.39 16.798C145.95 17.518 147.126 18.67 147.918 20.254C148.734 21.814 149.142 23.866 149.142 26.41V33.79H134.526ZM136.398 12.406V8.30204H141.222V12.406H136.398Z" fill="#4338CA"/>
<g clip-path="url(#clip0_346_305)">
<path d="M61.6522 10.3578L51.3697 11.212C51.3697 11.212 47.5512 15.6408 47.8619 18.3561C48.1725 21.0714 58.1417 25.0402 58.1417 25.0402C58.1417 25.0402 67.0238 19.5055 66.7131 16.7902C66.4025 14.0749 61.6522 10.3578 61.6522 10.3578Z" fill="#31373D"/>
<path d="M56.9285 2.0334C56.1018 1.61964 54.837 1.7247 54.1196 2.26673L42.3965 11.1185C41.6791 11.6605 41.7686 12.4425 42.5953 12.8563L56.1029 19.6115C56.9304 20.0251 58.1943 19.9202 58.9117 19.3781L70.634 10.5271C71.3523 9.98502 71.2628 9.20302 70.4352 8.78933L56.9285 2.0334Z" fill="#292F33"/>
<path d="M56.9285 2.0334C56.1018 1.61964 54.837 1.7247 54.1196 2.26673L42.3965 11.1185C41.6791 11.6605 41.7686 12.4425 42.5953 12.8563L56.1029 19.6115C56.9296 20.0252 58.1943 19.9202 58.9117 19.3781L70.6349 10.5271C71.3523 9.98503 71.2628 9.20302 70.4361 8.78926L56.9285 2.0334Z" fill="#394146"/>
<path d="M48.7963 18.9636C48.7963 18.9636 47.2378 20.4636 47.3155 21.1424L47.7814 25.2154C47.7814 25.2154 47.9367 26.573 49.6504 26.4307C51.3642 26.2883 51.2089 24.9307 51.2089 24.9307L50.743 20.8577C50.6653 20.1789 48.7963 18.9636 48.7963 18.9636Z" fill="#FCAB40"/>
<path d="M49.107 21.6787C50.5267 21.5608 51.5733 20.5534 51.4447 19.4287C51.316 18.304 50.0608 17.4879 48.6411 17.6058C47.2213 17.7237 46.1747 18.7311 46.3034 19.8558C46.4321 20.9805 47.6873 21.7967 49.107 21.6787Z" fill="#FDD888"/>
<path d="M48.9525 20.3212C48.7252 20.3401 48.4991 20.2867 48.3239 20.1727C48.1486 20.0588 48.0386 19.8936 48.018 19.7136L47.7106 17.0268C47.6254 16.5994 47.7128 15.6314 48.6152 14.9753L55.7317 8.96361C55.8899 8.83383 56.1053 8.75793 56.3312 8.75232C56.5572 8.7467 56.7756 8.81182 56.9393 8.9336C57.103 9.05538 57.1988 9.22405 57.206 9.40315C57.2132 9.58225 57.1313 9.7574 56.9778 9.89075L49.8154 15.9392C49.3332 16.2917 49.4189 16.8438 49.4195 16.8492L49.7326 19.5711C49.7428 19.6603 49.7307 19.7505 49.697 19.8365C49.6633 19.9225 49.6087 20.0026 49.5362 20.0723C49.4638 20.1419 49.375 20.1998 49.2748 20.2425C49.1746 20.2852 49.0651 20.312 48.9525 20.3212Z" fill="#FCAB40"/>
<path d="M56.6662 12.1426C58.0859 12.0247 59.1325 11.0173 59.0039 9.8926C58.8752 8.76788 57.62 7.95173 56.2003 8.06966C54.7805 8.1876 53.7339 9.19496 53.8626 10.3197C53.9913 11.4444 55.2465 12.2605 56.6662 12.1426Z" fill="#31373D"/>
</g>
<defs>
<clipPath id="clip0_346_305">
<rect width="30.9538" height="24.5971" fill="white" transform="matrix(0.996567 -0.0827842 0.113651 0.993521 40 2.5625)"/>
</clipPath>
</defs>
</svg>
