<svg width="193" height="84" viewBox="0 0 193 84" fill="none" xmlns="http://www.w3.org/2000/svg">
<path d="M62.295 54V8.752H70.871V54H62.295ZM55.063 54V46.576H62.295V54H55.063ZM55.063 54C54.807 54 54.5937 53.9147 54.423 53.744C54.295 53.5733 54.167 53.3387 54.039 53.04C53.9537 52.6987 53.8897 52.2933 53.847 51.824C53.8043 51.3547 53.783 50.8427 53.783 50.288C53.783 49.52 53.8257 48.88 53.911 48.368C53.9963 47.8133 54.1243 47.3867 54.295 47.088C54.5083 46.7467 54.7643 46.576 55.063 46.576V54ZM26.455 69.872C23.6817 69.872 21.1003 69.4667 18.711 68.656C16.3643 67.888 14.3163 66.8 12.567 65.392C10.8177 64.0267 9.431 62.384 8.407 60.464C7.42567 58.5867 6.935 56.5387 6.935 54.32C6.935 53.5093 6.999 52.464 7.127 51.184C7.255 49.904 7.42567 48.432 7.639 46.768C7.895 45.104 8.17233 43.3333 8.471 41.456L16.919 42.608C16.4923 45.296 16.151 47.6853 15.895 49.776C15.639 51.8667 15.511 53.3387 15.511 54.192C15.511 55.8133 15.959 57.2427 16.855 58.48C17.751 59.7173 19.0097 60.6773 20.631 61.36C22.295 62.0853 24.2363 62.448 26.455 62.448H44.567C47.3403 62.448 49.4097 61.744 50.775 60.336C52.1403 58.928 52.823 56.88 52.823 54.192V51.76H61.335V54.192C61.335 57.264 60.6523 59.9733 59.287 62.32C57.9217 64.6667 55.9803 66.5013 53.463 67.824C50.9883 69.1893 48.023 69.872 44.567 69.872H26.455ZM50.007 54C48.0443 54 46.1457 53.7867 44.311 53.36C42.519 52.9333 40.8123 52.1653 39.191 51.056L44.055 44.912C44.7377 45.3813 45.335 45.744 45.847 46C46.4017 46.2133 46.999 46.3627 47.639 46.448C48.3217 46.5333 49.111 46.576 50.007 46.576H64.151V54H50.007ZM64.151 54V46.576C64.3643 46.576 64.5563 46.6613 64.727 46.832C64.8977 47.0027 65.0257 47.2587 65.111 47.6C65.1963 47.9413 65.2603 48.3467 65.303 48.816C65.3883 49.2427 65.431 49.7333 65.431 50.288C65.431 50.8427 65.3883 51.3547 65.303 51.824C65.2603 52.2933 65.1963 52.6987 65.111 53.04C65.0257 53.3387 64.8977 53.5733 64.727 53.744C64.5563 53.9147 64.3643 54 64.151 54ZM24.279 83.056V75.76H32.535V83.056H24.279ZM35.927 83.056V75.76H44.183V83.056H35.927ZM90.223 54V46.576H98.479V54H90.223ZM77.807 69.872C77.2523 69.872 76.655 69.8507 76.015 69.808C75.375 69.7653 74.7137 69.7013 74.031 69.616L74.351 62.32C75.0337 62.3627 75.6737 62.4053 76.271 62.448C76.911 62.4907 77.3803 62.512 77.679 62.512C79.343 62.512 80.6657 61.8507 81.647 60.528C82.671 59.2053 83.183 57.3493 83.183 54.96V21.872H91.759V54.96C91.759 57.8613 91.1617 60.4427 89.967 62.704C88.815 64.9653 87.1937 66.7147 85.103 67.952C83.0123 69.232 80.5803 69.872 77.807 69.872ZM98.479 54V46.576C98.735 46.576 98.927 46.6613 99.055 46.832C99.2257 47.0027 99.3537 47.2587 99.439 47.6C99.567 47.9413 99.6523 48.3467 99.695 48.816C99.7377 49.2427 99.759 49.7333 99.759 50.288C99.759 50.8427 99.7377 51.3547 99.695 51.824C99.6523 52.2933 99.567 52.6987 99.439 53.04C99.3537 53.3387 99.2257 53.5733 99.055 53.744C98.927 53.9147 98.735 54 98.479 54ZM98.5 54V46.576H130.628L127.812 48.88V40.176C127.812 37.9573 127.577 36.1867 127.108 34.864C126.639 33.5413 125.913 32.5813 124.932 31.984C123.993 31.3867 122.799 31.088 121.348 31.088H107.332L102.02 23.408L105.284 17.264C105.668 16.5387 106.095 15.7493 106.564 14.896C107.033 14.0427 107.652 13.0187 108.42 11.824C109.188 10.6293 110.169 9.136 111.364 7.344L118.532 11.376C117.423 13.04 116.527 14.4267 115.844 15.536C115.161 16.6027 114.585 17.5413 114.116 18.352C113.647 19.1627 113.22 19.9733 112.836 20.784L110.276 25.584L108.996 23.664H121.348C124.079 23.664 126.404 24.112 128.324 25.008C130.244 25.904 131.78 27.1413 132.932 28.72C134.127 30.2987 135.001 32.0693 135.556 34.032C136.111 35.9947 136.388 38.0427 136.388 40.176V54H98.5ZM98.5 54C98.244 54 98.052 53.9147 97.924 53.744C97.7533 53.5733 97.6253 53.3387 97.54 53.04C97.412 52.6987 97.3267 52.2933 97.284 51.824C97.2413 51.3547 97.22 50.8427 97.22 50.288C97.22 49.52 97.2627 48.88 97.348 48.368C97.4333 47.8133 97.5827 47.3867 97.796 47.088C97.9667 46.7467 98.2013 46.576 98.5 46.576V54ZM146.573 54V8.752H155.085V54H146.573ZM163.435 54V46.576H186.667L180.843 51.632V40.88C180.843 37.8507 180.523 35.504 179.883 33.84C179.286 32.176 178.262 31.0027 176.811 30.32C175.403 29.6373 173.462 29.296 170.987 29.296H165.803V21.872H170.987C174.912 21.872 178.24 22.512 180.971 23.792C183.744 25.072 185.835 27.12 187.243 29.936C188.694 32.7093 189.419 36.3573 189.419 40.88V54H163.435ZM166.763 15.984V8.688H175.339V15.984H166.763Z" fill="white"/>
<g clip-path="url(#clip0_346_291)">
<path d="M29.7819 16.1032L15.6085 17.4849C15.6085 17.4849 10.3179 24.3697 10.7279 28.5759C11.1379 32.782 24.8478 38.8762 24.8478 38.8762C24.8478 38.8762 37.1226 30.249 36.7126 26.0429C36.3025 21.8367 29.7819 16.1032 29.7819 16.1032Z" fill="#31373D"/>
<path d="M23.3284 3.22954C22.1921 2.593 20.4488 2.76294 19.4567 3.60696L3.2455 17.3905C2.25347 18.2345 2.37155 19.4459 3.50791 20.0825L22.0746 30.4748C23.2122 31.1112 24.9543 30.9414 25.9463 30.0974L42.1565 16.315C43.1497 15.4708 43.0316 14.2595 41.8941 13.623L23.3284 3.22954Z" fill="#292F33"/>
<path d="M23.3284 3.22954C22.1921 2.593 20.4488 2.76294 19.4567 3.60696L3.2455 17.3905C2.25347 18.2345 2.37155 19.4459 3.50791 20.0825L22.0746 30.4748C23.211 31.1113 24.9543 30.9414 25.9463 30.0974L42.1577 16.3148C43.1497 15.4708 43.0316 14.2595 41.8953 13.6229L23.3284 3.22954Z" fill="#394146"/>
<path d="M12.0115 29.5124C12.0115 29.5124 9.8543 31.8457 9.9568 32.8973L10.5718 39.2065C10.5718 39.2065 10.7768 41.3095 13.1391 41.0793C15.5013 40.849 15.2963 38.7459 15.2963 38.7459L14.6813 32.4367C14.5788 31.3852 12.0115 29.5124 12.0115 29.5124Z" fill="#FCAB40"/>
<path d="M12.4216 33.7182C14.3785 33.5274 15.8272 31.9604 15.6574 30.2182C15.4876 28.4759 13.7635 27.2182 11.8065 27.409C9.8496 27.5997 8.40086 29.1668 8.5707 30.909C8.74053 32.6512 10.4646 33.9089 12.4216 33.7182Z" fill="#FDD888"/>
<path d="M12.2177 31.6152C11.9045 31.6457 11.5933 31.5642 11.3525 31.3886C11.1118 31.213 10.9613 30.9577 10.9341 30.6788L10.5284 26.5168C10.4138 25.855 10.5406 24.3544 11.7883 23.3326L21.6336 13.9762C21.8524 13.7742 22.1497 13.6553 22.4611 13.6454C22.7725 13.6354 23.073 13.7351 23.2977 13.9229C23.5225 14.1107 23.6533 14.3715 23.6621 14.649C23.6708 14.9265 23.5567 15.1984 23.3445 15.406L13.4356 24.8195C12.769 25.3685 12.8833 26.2236 12.8841 26.232L13.2975 30.4484C13.311 30.5866 13.2938 30.7264 13.2468 30.8598C13.1998 30.9933 13.124 31.1177 13.0237 31.2261C12.9234 31.3344 12.8006 31.4246 12.6623 31.4914C12.524 31.5581 12.373 31.6002 12.2177 31.6152Z" fill="#FCAB40"/>
<path d="M22.9002 18.8969C24.8571 18.7061 26.3059 17.1391 26.1361 15.3969C25.9662 13.6546 24.2421 12.3969 22.2852 12.5877C20.3282 12.7785 18.8795 14.3455 19.0493 16.0877C19.2192 17.8299 20.9433 19.0877 22.9002 18.8969Z" fill="#31373D"/>
</g>
<defs>
<clipPath id="clip0_346_291">
<rect width="42.7219" height="38.0346" fill="white" transform="translate(0 4.14502) rotate(-5.56765)"/>
</clipPath>
</defs>
</svg>
