<svg width="104" height="44" viewBox="0 0 104 44" fill="none" xmlns="http://www.w3.org/2000/svg">
<path d="M31.6347 26.79V1.33804H36.4587V26.79H31.6347ZM27.5667 26.79V22.614H31.6347V26.79H27.5667ZM27.5667 26.79C27.4227 26.79 27.3027 26.742 27.2067 26.646C27.1347 26.55 27.0627 26.418 26.9907 26.25C26.9427 26.058 26.9067 25.83 26.8827 25.566C26.8587 25.302 26.8467 25.014 26.8467 24.702C26.8467 24.27 26.8707 23.91 26.9187 23.622C26.9667 23.31 27.0387 23.07 27.1347 22.902C27.2547 22.71 27.3987 22.614 27.5667 22.614V26.79ZM11.4747 35.718C9.91469 35.718 8.46269 35.49 7.11869 35.034C5.79869 34.602 4.64669 33.99 3.66269 33.198C2.67869 32.43 1.89869 31.506 1.32269 30.426C0.770688 29.37 0.494688 28.218 0.494688 26.97C0.494688 26.514 0.530688 25.926 0.602688 25.206C0.674688 24.486 0.770688 23.658 0.890688 22.722C1.03469 21.786 1.19069 20.79 1.35869 19.734L6.11069 20.382C5.87069 21.894 5.67869 23.238 5.53469 24.414C5.39069 25.59 5.31869 26.418 5.31869 26.898C5.31869 27.81 5.57069 28.614 6.07469 29.31C6.57869 30.006 7.28669 30.546 8.19869 30.93C9.13469 31.338 10.2267 31.542 11.4747 31.542H21.6627C23.2227 31.542 24.3867 31.146 25.1547 30.354C25.9227 29.562 26.3067 28.41 26.3067 26.898V25.53H31.0947V26.898C31.0947 28.626 30.7107 30.15 29.9427 31.47C29.1747 32.79 28.0827 33.822 26.6667 34.566C25.2747 35.334 23.6067 35.718 21.6627 35.718H11.4747ZM24.7227 26.79C23.6187 26.79 22.5507 26.67 21.5187 26.43C20.5107 26.19 19.5507 25.758 18.6387 25.134L21.3747 21.678C21.7587 21.942 22.0947 22.146 22.3827 22.29C22.6947 22.41 23.0307 22.494 23.3907 22.542C23.7747 22.59 24.2187 22.614 24.7227 22.614H32.6787V26.79H24.7227ZM32.6787 26.79V22.614C32.7987 22.614 32.9067 22.662 33.0027 22.758C33.0987 22.854 33.1707 22.998 33.2187 23.19C33.2667 23.382 33.3027 23.61 33.3267 23.874C33.3747 24.114 33.3987 24.39 33.3987 24.702C33.3987 25.014 33.3747 25.302 33.3267 25.566C33.3027 25.83 33.2667 26.058 33.2187 26.25C33.1707 26.418 33.0987 26.55 33.0027 26.646C32.9067 26.742 32.7987 26.79 32.6787 26.79ZM10.2507 43.134V39.03H14.8947V43.134H10.2507ZM16.8027 43.134V39.03H21.4467V43.134H16.8027ZM47.3442 26.79V22.614H51.9882V26.79H47.3442ZM40.3602 35.718C40.0482 35.718 39.7122 35.706 39.3522 35.682C38.9922 35.658 38.6202 35.622 38.2362 35.574L38.4162 31.47C38.8002 31.494 39.1602 31.518 39.4962 31.542C39.8562 31.566 40.1202 31.578 40.2882 31.578C41.2242 31.578 41.9682 31.206 42.5202 30.462C43.0962 29.718 43.3842 28.674 43.3842 27.33V8.71804H48.2082V27.33C48.2082 28.962 47.8722 30.414 47.2002 31.686C46.5522 32.958 45.6402 33.942 44.4642 34.638C43.2882 35.358 41.9202 35.718 40.3602 35.718ZM51.9882 26.79V22.614C52.1322 22.614 52.2402 22.662 52.3122 22.758C52.4082 22.854 52.4802 22.998 52.5282 23.19C52.6002 23.382 52.6482 23.61 52.6722 23.874C52.6962 24.114 52.7082 24.39 52.7082 24.702C52.7082 25.014 52.6962 25.302 52.6722 25.566C52.6482 25.83 52.6002 26.058 52.5282 26.25C52.4802 26.418 52.4082 26.55 52.3122 26.646C52.2402 26.742 52.1322 26.79 51.9882 26.79ZM52 26.79V22.614H70.072L68.488 23.91V19.014C68.488 17.766 68.356 16.77 68.092 16.026C67.828 15.282 67.42 14.742 66.868 14.406C66.34 14.07 65.668 13.902 64.852 13.902H56.968L53.98 9.58204L55.816 6.12604C56.032 5.71804 56.272 5.27404 56.536 4.79404C56.8 4.31404 57.148 3.73804 57.58 3.06604C58.012 2.39404 58.564 1.55404 59.236 0.546038L63.268 2.81404C62.644 3.75004 62.14 4.53004 61.756 5.15404C61.372 5.75404 61.048 6.28204 60.784 6.73804C60.52 7.19404 60.28 7.65004 60.064 8.10604L58.624 10.806L57.904 9.72604H64.852C66.388 9.72604 67.696 9.97804 68.776 10.482C69.856 10.986 70.72 11.682 71.368 12.57C72.04 13.458 72.532 14.454 72.844 15.558C73.156 16.662 73.312 17.814 73.312 19.014V26.79H52ZM52 26.79C51.856 26.79 51.748 26.742 51.676 26.646C51.58 26.55 51.508 26.418 51.46 26.25C51.388 26.058 51.34 25.83 51.316 25.566C51.292 25.302 51.28 25.014 51.28 24.702C51.28 24.27 51.304 23.91 51.352 23.622C51.4 23.31 51.484 23.07 51.604 22.902C51.7 22.71 51.832 22.614 52 22.614V26.79ZM79.0408 26.79V1.33804H83.8288V26.79H79.0408ZM88.5259 26.79V22.614H101.594L98.3179 25.458V19.41C98.3179 17.706 98.1379 16.386 97.7779 15.45C97.4419 14.514 96.8659 13.854 96.0499 13.47C95.2579 13.086 94.1659 12.894 92.7739 12.894H89.8579V8.71804H92.7739C94.9819 8.71804 96.8539 9.07804 98.3899 9.79804C99.9499 10.518 101.126 11.67 101.918 13.254C102.734 14.814 103.142 16.866 103.142 19.41V26.79H88.5259ZM90.3979 5.40604V1.30204H95.2219V5.40604H90.3979Z" fill="#4338CA"/>
</svg>
